# xmcd CD database file
#
# Track frame offsets:
#	150
#	17334
#	27485
#	41359
#	54958
#
# Disc length: 1008 seconds
#
# Revision: 0
# Processed by: cddbd v1.5.2PL0 Copyright (c) Steve Scherf et al.
# Submitted via: CDex 1.70beta2
#
DISCID=2e03ee05
DTITLE=Kaki King - Mexican Teenagers
DYEAR=2009
DGENRE=Jazz
TTITLE0=Mexican Teenagers
TTITLE1=Gouge Both Your Eyes Out (But Eat Only One)
TTITLE2=Lintoria
TTITLE3=Vivian Leigh's Veins
TTITLE4=A Long Way To Go Before We Are Truly Danlike
EXTD=YEAR: 2009
EXTT0=
EXTT1=
EXTT2=
EXTT3=
EXTT4=
PLAYORDER=
